<svg width="59" height="59" viewBox="0 0 59 59" fill="none" xmlns="http://www.w3.org/2000/svg">
<rect width="59" height="59" rx="29.5" fill="#8ABAB6"/>
<path d="M20.2498 8.6665H37.7498C44.4165 8.6665 49.8332 14.0832 49.8332 20.7498V38.2498C49.8332 41.4545 48.5601 44.528 46.294 46.794C44.028 49.0601 40.9545 50.3332 37.7498 50.3332H20.2498C13.5832 50.3332 8.1665 44.9165 8.1665 38.2498V20.7498C8.1665 17.5451 9.43957 14.4717 11.7056 12.2056C13.9717 9.93957 17.0451 8.6665 20.2498 8.6665ZM19.8332 12.8332C17.844 12.8332 15.9364 13.6233 14.5299 15.0299C13.1233 16.4364 12.3332 18.344 12.3332 20.3332V38.6665C12.3332 42.8123 15.6873 46.1665 19.8332 46.1665H38.1665C40.1556 46.1665 42.0633 45.3763 43.4698 43.9698C44.8763 42.5633 45.6665 40.6556 45.6665 38.6665V20.3332C45.6665 16.1873 42.3123 12.8332 38.1665 12.8332H19.8332ZM39.9373 15.9582C40.628 15.9582 41.2904 16.2325 41.7788 16.7209C42.2671 17.2093 42.5415 17.8717 42.5415 18.5623C42.5415 19.253 42.2671 19.9154 41.7788 20.4038C41.2904 20.8921 40.628 21.1665 39.9373 21.1665C39.2467 21.1665 38.5843 20.8921 38.0959 20.4038C37.6075 19.9154 37.3332 19.253 37.3332 18.5623C37.3332 17.8717 37.6075 17.2093 38.0959 16.7209C38.5843 16.2325 39.2467 15.9582 39.9373 15.9582ZM28.9998 19.0832C31.7625 19.0832 34.412 20.1806 36.3655 22.1341C38.319 24.0876 39.4165 26.7372 39.4165 29.4998C39.4165 32.2625 38.319 34.912 36.3655 36.8655C34.412 38.819 31.7625 39.9165 28.9998 39.9165C26.2372 39.9165 23.5876 38.819 21.6341 36.8655C19.6806 34.912 18.5832 32.2625 18.5832 29.4998C18.5832 26.7372 19.6806 24.0876 21.6341 22.1341C23.5876 20.1806 26.2372 19.0832 28.9998 19.0832ZM28.9998 23.2498C27.3422 23.2498 25.7525 23.9083 24.5804 25.0804C23.4083 26.2525 22.7498 27.8422 22.7498 29.4998C22.7498 31.1574 23.4083 32.7472 24.5804 33.9193C25.7525 35.0914 27.3422 35.7498 28.9998 35.7498C30.6574 35.7498 32.2472 35.0914 33.4193 33.9193C34.5914 32.7472 35.2498 31.1574 35.2498 29.4998C35.2498 27.8422 34.5914 26.2525 33.4193 25.0804C32.2472 23.9083 30.6574 23.2498 28.9998 23.2498Z" fill="white"/>
</svg>
