<svg width="249" height="84" viewBox="0 0 249 84" fill="none" xmlns="http://www.w3.org/2000/svg">
<path d="M21.76 62.64C20.1167 62.64 18.7283 62.1017 17.595 61.025C16.4617 59.8917 15.895 58.5033 15.895 56.86C15.895 54.65 15.6117 52.525 15.045 50.485C14.535 48.3883 13.855 46.4333 13.005 44.62C12.2117 42.8067 11.305 41.1633 10.285 39.69C9.32167 38.16 8.38667 36.8283 7.48 35.695C5.21333 33.0317 3.51333 30.4817 2.38 28.045C1.24667 25.5517 0.453333 23.2283 0 21.075H14.79C15.2433 22.5483 15.895 24.1067 16.745 25.75C17.595 27.3367 18.7283 28.9517 20.145 30.595C21.2217 31.8417 22.355 33.485 23.545 35.525C24.7917 37.5083 25.8967 39.7467 26.86 42.24C27.8233 44.6767 28.5883 47.2833 29.155 50.06C29.7217 52.78 29.92 55.5 29.75 58.22C30.8267 56.7467 31.535 55.1317 31.875 53.375C32.215 51.5617 32.3567 49.635 32.3 47.595C32.2433 45.555 32.045 43.4583 31.705 41.305C31.365 39.095 31.0533 36.8567 30.77 34.59C30.4867 32.3233 30.2883 30.0567 30.175 27.79C30.0617 25.5233 30.175 23.285 30.515 21.075H45.05C44.3133 22.5483 43.69 24.22 43.18 26.09C42.7267 27.9033 42.5 29.8867 42.5 32.04C42.5 34.1933 42.1883 36.63 41.565 39.35C40.9983 42.0133 40.205 44.705 39.185 47.425C38.165 50.0883 36.9467 52.6383 35.53 55.075C34.17 57.455 32.6967 59.4383 31.11 61.025C29.92 62.1017 28.5883 62.64 27.115 62.64H21.76ZM48.0615 62.64C49.5349 60.1467 50.6115 57.625 51.2915 55.075C52.0282 52.4683 52.4532 49.975 52.5665 47.595C52.7365 45.1583 52.6232 42.8633 52.2265 40.71C51.8865 38.5567 51.3765 36.6583 50.6965 35.015C49.6199 32.295 48.9682 29.83 48.7415 27.62C48.5149 25.3533 48.7132 23.1717 49.3365 21.075H63.1065C62.6532 23.115 62.4832 25.1833 62.5965 27.28C62.7665 29.32 63.3332 31.615 64.2965 34.165C64.9765 35.9217 65.5149 37.905 65.9115 40.115C66.3649 42.2683 66.5349 44.5917 66.4215 47.085C66.3649 49.5217 65.9682 52.0717 65.2315 54.735C64.5515 57.3417 63.4182 59.9767 61.8315 62.64H48.0615ZM61.6615 11.98C61.6615 13.85 60.9815 15.465 59.6215 16.825C58.3182 18.1283 56.7315 18.78 54.8615 18.78C52.9915 18.78 51.3765 18.1283 50.0165 16.825C48.7132 15.465 48.0615 13.85 48.0615 11.98C48.0615 10.0533 48.7132 8.43833 50.0165 7.135C51.3765 5.83166 52.9915 5.18 54.8615 5.18C56.7315 5.18 58.3182 5.83166 59.6215 7.135C60.9815 8.43833 61.6615 10.0533 61.6615 11.98ZM66.2402 62.64C67.7136 60.1467 68.7902 57.625 69.4702 55.075C70.2069 52.4683 70.6319 49.975 70.7452 47.595C70.9152 45.1583 70.8019 42.8633 70.4052 40.71C70.0652 38.5567 69.5552 36.6583 68.8752 35.015C67.9686 32.6917 67.3169 30.51 66.9202 28.47C66.5236 26.3733 66.2969 24.4467 66.2402 22.69C66.2402 20.8767 66.3536 19.2333 66.5802 17.76C66.8069 16.23 67.0902 14.8983 67.4302 13.765C67.8269 12.5183 68.2236 11.4417 68.6202 10.535C69.0169 9.62833 69.4136 8.86333 69.8102 8.24C70.2069 7.56 70.6319 6.99333 71.0852 6.54H85.1102C85.1102 6.54 84.9686 6.76666 84.6852 7.22C84.4019 7.61666 84.0336 8.18333 83.5802 8.92C83.1836 9.6 82.7586 10.4217 82.3052 11.385C81.8519 12.3483 81.4552 13.3967 81.1152 14.53C80.6619 15.8333 80.3219 17.3917 80.0952 19.205C79.8686 21.0183 79.8969 23.03 80.1802 25.24C80.4636 24.7867 80.8602 24.3617 81.3702 23.965C83.0702 22.4917 84.9969 21.4717 87.1502 20.905C89.3036 20.2817 91.4569 20.1117 93.6102 20.395C95.8202 20.6217 97.9452 21.3017 99.9852 22.435C102.082 23.5117 103.924 25.0133 105.51 26.94C107.154 28.81 108.457 31.0767 109.42 33.74C110.44 36.4033 110.95 39.435 110.95 42.835C110.95 45.045 110.695 47.0567 110.185 48.87C109.675 50.6267 109.024 52.2133 108.23 53.63C107.437 55.0467 106.502 56.2933 105.425 57.37C104.349 58.4467 103.272 59.3533 102.195 60.09C100.835 61.0533 99.2486 61.79 97.4352 62.3C95.6219 62.81 93.7802 63.0367 91.9102 62.98C90.0402 62.9233 88.2269 62.555 86.4702 61.875C84.7702 61.1383 83.2969 60.005 82.0502 58.475C81.7669 59.2117 81.4552 59.92 81.1152 60.6C80.7752 61.28 80.4069 61.96 80.0102 62.64H66.2402ZM83.5802 25.155C83.1269 25.4383 82.5886 25.92 81.9652 26.6C81.3419 27.28 80.9452 27.96 80.7752 28.64C81.1152 30.2267 81.6819 32.0683 82.4752 34.165C83.4952 36.715 84.1752 39.7183 84.5152 43.175C84.9119 46.575 84.6286 50.2017 83.6652 54.055C84.2319 56.2083 84.9969 57.7667 85.9602 58.73C86.9802 59.6367 87.9719 60.2033 88.9352 60.43C91.5986 61.11 93.6669 60.0333 95.1402 57.2C96.6136 54.3667 97.3502 49.55 97.3502 42.75C97.3502 39.2933 97.0102 36.2333 96.3302 33.57C95.6502 30.85 94.7152 28.6683 93.5252 27.025C92.3352 25.3817 90.8902 24.3617 89.1902 23.965C87.4902 23.5683 85.6202 23.965 83.5802 25.155Z" fill="#8ABAB6"/>
<path d="M116.769 0.0799971H152.469V18.78C140.059 18.695 144.479 4.075 133.004 4.075C127.734 4.075 125.014 8.75 125.014 14.19C125.014 24.73 135.639 26.77 143.629 26.77C148.559 26.77 152.469 26.005 152.469 26.005V39.01C142.779 39.01 134.874 31.275 129.349 31.275C128.159 31.275 127.054 31.615 126.119 32.465C122.379 35.695 125.184 39.775 128.074 44.195C131.049 48.105 134.619 52.525 134.619 59.58C142.694 57.455 145.159 50.145 152.469 50.145V64H116.769V0.0799971ZM182.603 32.635C181.583 31.445 180.421 30.5383 179.118 29.915C177.871 29.235 176.624 28.81 175.378 28.64C174.188 28.4133 173.083 28.4417 172.063 28.725C171.099 28.9517 170.363 29.405 169.853 30.085C170.079 31.3883 170.504 32.7483 171.128 34.165C171.808 35.9217 172.346 37.905 172.743 40.115C173.196 42.2683 173.366 44.5917 173.253 47.085C173.196 49.5217 172.799 52.0717 172.063 54.735C171.383 57.3417 170.249 59.9767 168.663 62.64H154.893C156.366 60.1467 157.443 57.625 158.123 55.075C158.859 52.4683 159.284 49.975 159.398 47.595C159.568 45.1583 159.454 42.8633 159.058 40.71C158.718 38.5567 158.208 36.6583 157.528 35.015C156.451 32.295 155.799 29.8017 155.573 27.535C155.346 25.2683 155.544 23.115 156.168 21.075H169.938C169.484 22.8883 169.314 24.73 169.428 26.6C169.654 26.2033 169.881 25.8633 170.108 25.58C170.391 25.24 170.674 24.9283 170.958 24.645C173.848 22.2083 176.964 20.82 180.308 20.48C183.708 20.14 186.853 20.7917 189.743 22.435C192.689 24.0217 195.126 26.5433 197.053 30C198.979 33.4567 199.943 37.735 199.943 42.835C199.943 45.045 199.773 46.8867 199.433 48.36C199.149 49.8333 198.894 51.25 198.668 52.61C198.441 53.97 198.384 55.415 198.498 56.945C198.611 58.475 199.093 60.3733 199.943 62.64H185.238C184.331 60.8833 183.849 59.155 183.793 57.455C183.736 55.6983 183.849 53.9983 184.133 52.355C184.416 50.655 184.756 49.0117 185.153 47.425C185.606 45.7817 185.861 44.1383 185.918 42.495C186.031 40.8517 185.861 39.2083 185.408 37.565C184.954 35.9217 184.019 34.2783 182.603 32.635ZM216.265 82.19C214.962 81.5667 214.055 80.8867 213.545 80.15C213.035 79.47 212.724 78.7333 212.61 77.94C212.554 77.1467 212.61 76.325 212.78 75.475C212.95 74.6817 213.092 73.8883 213.205 73.095C213.319 72.3017 213.319 71.5367 213.205 70.8C213.092 70.0633 212.695 69.355 212.015 68.675L225.7 64.34C226.437 65.2467 226.805 66.2383 226.805 67.315C226.862 68.4483 226.72 69.5533 226.38 70.63C226.04 71.7067 225.559 72.755 224.935 73.775C224.369 74.8517 223.859 75.8433 223.405 76.75C223.009 77.6567 222.725 78.4217 222.555 79.045C222.442 79.725 222.64 80.2067 223.15 80.49C224.057 81 225.134 80.745 226.38 79.725C227.684 78.705 228.902 77.1467 230.035 75.05C231.169 72.9533 232.104 70.4317 232.84 67.485C233.634 64.5383 233.945 61.3933 233.775 58.05C232.642 59.75 231.197 61.025 229.44 61.875C227.684 62.725 225.842 63.2067 223.915 63.32C221.989 63.3767 220.062 63.15 218.135 62.64C216.209 62.13 214.537 61.365 213.12 60.345C211.987 59.6083 210.882 58.7017 209.805 57.625C208.785 56.5483 207.879 55.3017 207.085 53.885C206.292 52.4683 205.64 50.8817 205.13 49.125C204.62 47.3117 204.365 45.3 204.365 43.09C204.365 39.8033 204.819 36.885 205.725 34.335C206.632 31.7283 207.822 29.49 209.295 27.62C210.825 25.75 212.554 24.2483 214.48 23.115C216.464 21.925 218.504 21.16 220.6 20.82C222.754 20.4233 224.85 20.4517 226.89 20.905C228.987 21.3017 230.942 22.095 232.755 23.285C232.982 22.8883 233.18 22.5483 233.35 22.265C233.577 21.9817 233.747 21.755 233.86 21.585C234.03 21.3583 234.172 21.1883 234.285 21.075H248.31C247.8 21.755 247.29 22.4917 246.78 23.285C246.327 24.0217 245.874 24.8717 245.42 25.835C245.024 26.7983 244.655 27.8467 244.315 28.98C243.692 31.1333 243.38 33.8533 243.38 37.14C243.437 40.37 244.202 44.195 245.675 48.615C246.695 51.675 246.979 54.7917 246.525 57.965C246.072 61.0817 245.109 64.0567 243.635 66.89C242.219 69.7233 240.377 72.3017 238.11 74.625C235.9 76.9483 233.52 78.8467 230.97 80.32C228.477 81.7933 225.927 82.7283 223.32 83.125C220.77 83.5217 218.419 83.21 216.265 82.19ZM226.38 60.77C227.4 60.6 228.335 60.2317 229.185 59.665C230.092 59.0983 230.829 58.3617 231.395 57.455C232.019 56.5483 232.415 55.5 232.585 54.31C232.812 53.12 232.755 51.8733 232.415 50.57C232.302 50.1167 232.189 49.7483 232.075 49.465C230.432 44.7617 229.61 40.625 229.61 37.055C229.61 33.485 229.95 30.5383 230.63 28.215C230.914 27.3083 231.254 26.43 231.65 25.58C229.724 24.6733 227.91 24.475 226.21 24.985C224.567 25.4383 223.122 26.4583 221.875 28.045C220.685 29.575 219.722 31.6433 218.985 34.25C218.305 36.8 217.965 39.7183 217.965 43.005C217.965 49.805 218.674 54.5933 220.09 57.37C221.564 60.09 223.66 61.2233 226.38 60.77Z" fill="#9481AF"/>
</svg>
