<svg width="59" height="59" viewBox="0 0 59 59" fill="none" xmlns="http://www.w3.org/2000/svg">
<rect width="59" height="59" rx="29.5" fill="#8ABAB6"/>
<path d="M39.6582 15.8525C38.149 14.129 37.3171 11.9159 37.3174 9.625H30.4936V37.0083C30.4421 38.4905 29.8168 39.8948 28.7497 40.9248C27.6826 41.9548 26.2571 42.5301 24.774 42.5292C21.6382 42.5292 19.0324 39.9675 19.0324 36.7875C19.0324 32.9892 22.6982 30.1404 26.4744 31.3108V24.3325C18.8557 23.3167 12.1865 29.235 12.1865 36.7875C12.1865 44.1413 18.2815 49.375 24.7519 49.375C31.6861 49.375 37.3174 43.7437 37.3174 36.7875V22.8971C40.0844 24.8843 43.4065 25.9504 46.8132 25.9446V19.1208C46.8132 19.1208 42.6615 19.3196 39.6582 15.8525Z" fill="white"/>
</svg>
