<svg width="59" height="59" viewBox="0 0 59 59" fill="none" xmlns="http://www.w3.org/2000/svg">
<rect width="59" height="59" rx="29.5" fill="#8ABAB6"/>
<path d="M24.9168 36.3752L36.8106 29.5002L24.9168 22.6252V36.3752ZM51.4085 18.4314C51.7064 19.5085 51.9127 20.9522 52.0502 22.7856C52.2106 24.6189 52.2793 26.2002 52.2793 27.5752L52.4168 29.5002C52.4168 34.5189 52.0502 38.2085 51.4085 40.5689C50.8356 42.6314 49.5064 43.9606 47.4439 44.5335C46.3668 44.8314 44.396 45.0377 41.371 45.1752C38.3918 45.3356 35.6647 45.4043 33.1439 45.4043L29.5002 45.5418C19.8981 45.5418 13.9168 45.1752 11.5564 44.5335C9.49391 43.9606 8.16475 42.6314 7.59183 40.5689C7.29391 39.4918 7.08766 38.0481 6.95016 36.2147C6.78975 34.3814 6.721 32.8002 6.721 31.4252L6.5835 29.5002C6.5835 24.4814 6.95016 20.7918 7.59183 18.4314C8.16475 16.3689 9.49391 15.0397 11.5564 14.4668C12.6335 14.1689 14.6043 13.9627 17.6293 13.8252C20.6085 13.6647 23.3356 13.596 25.8564 13.596L29.5002 13.4585C39.1022 13.4585 45.0835 13.8252 47.4439 14.4668C49.5064 15.0397 50.8356 16.3689 51.4085 18.4314Z" fill="white"/>
</svg>
